<svg width="24" height="24" viewBox="0 0 24 24" fill="none" xmlns="http://www.w3.org/2000/svg">
<g clip-path="url(#clip0_61_3790)">
<path d="M7.48047 5.65012L10.5805 3.25012C10.9805 2.85012 11.8805 2.65012 12.4805 2.65012H16.2805C17.4805 2.65012 18.7805 3.55012 19.0805 4.75012L21.4805 12.0501C21.9805 13.4501 21.0805 14.6501 19.5805 14.6501H15.5805C14.9805 14.6501 14.4805 15.1501 14.5805 15.8501L15.0805 19.0501C15.2805 19.9501 14.6805 20.9501 13.7805 21.2501C12.9805 21.5501 11.9805 21.1501 11.5805 20.5501L7.48047 14.4501" stroke="#0B0F0E" stroke-width="1.5" stroke-miterlimit="10"/>
<path d="M2.37988 5.65012V15.4501C2.37988 16.8501 2.97988 17.3501 4.37988 17.3501H5.37988C6.77988 17.3501 7.37988 16.8501 7.37988 15.4501V5.65012C7.37988 4.25012 6.77988 3.75012 5.37988 3.75012H4.37988C2.97988 3.75012 2.37988 4.25012 2.37988 5.65012Z" stroke="#0B0F0E" stroke-width="1.5" stroke-linecap="round" stroke-linejoin="round"/>
</g>
<defs>
<clipPath id="clip0_61_3790">
<rect width="24" height="24" fill="white" transform="matrix(1 0 0 -1 0 24.0001)"/>
</clipPath>
</defs>
</svg>
