<svg width="20" height="20" viewBox="0 0 20 20" fill="none" xmlns="http://www.w3.org/2000/svg">
<rect x="1" y="1" width="18" height="18" rx="9" fill="#E04124"/>
<path d="M10.1902 14.12C12.3382 14.12 13.4662 13.088 13.4662 11.468C13.4662 9.944 12.5662 9.032 10.8022 9.032C9.59022 9.032 8.96622 9.44 8.61822 9.968H8.55822V9.272C8.55822 8.132 8.83422 7.58 10.0462 7.58C10.9702 7.58 11.3542 7.82 11.3542 8.408V8.48H13.2622V8.384C13.2622 6.824 12.1462 5.84 10.2862 5.84C7.91022 5.84 6.69822 7.268 6.69822 9.848C6.69822 12.68 7.62222 14.12 10.1902 14.12ZM10.2142 12.392C9.07422 12.392 8.71422 12.128 8.71422 11.432C8.71422 10.748 9.07422 10.484 10.2142 10.484C11.3542 10.484 11.7022 10.748 11.7022 11.432C11.7022 12.128 11.3542 12.392 10.2142 12.392Z" fill="white"/>
<rect x="1" y="1" width="18" height="18" rx="9" stroke="white" stroke-width="1.5"/>
</svg>
