<svg width="48" height="48" viewBox="0 0 48 48" fill="none" xmlns="http://www.w3.org/2000/svg">
<path d="M24 24C26.7614 24 29 21.7614 29 19C29 16.2386 26.7614 14 24 14C21.2386 14 19 16.2386 19 19C19 21.7614 21.2386 24 24 24Z" fill="#818B9C"/>
<path d="M23.9999 26.5C18.9899 26.5 14.9099 29.86 14.9099 34C14.9099 34.28 15.1299 34.5 15.4099 34.5H32.5899C32.8699 34.5 33.0899 34.28 33.0899 34C33.0899 29.86 29.0099 26.5 23.9999 26.5Z" fill="#818B9C"/>
<rect x="0.5" y="0.5" width="47" height="47" rx="23.5" stroke="#E4E9EE"/>
</svg>
