<svg width="48" height="48" viewBox="0 0 48 48" fill="none" xmlns="http://www.w3.org/2000/svg">
<path d="M14 14H15.74C16.82 14 17.67 14.93 17.58 16L16.75 25.96C16.61 27.59 17.9 28.99 19.54 28.99H30.19C31.63 28.99 32.89 27.81 33 26.38L33.54 18.88C33.66 17.22 32.4 15.87 30.73 15.87H17.82" fill="#818B9C"/>
<path d="M14 14H15.74C16.82 14 17.67 14.93 17.58 16L16.75 25.96C16.61 27.59 17.9 28.99 19.54 28.99H30.19C31.63 28.99 32.89 27.81 33 26.38L33.54 18.88C33.66 17.22 32.4 15.87 30.73 15.87H17.82" stroke="#818B9C" stroke-width="1.5" stroke-miterlimit="10" stroke-linecap="round" stroke-linejoin="round"/>
<path d="M28.25 34C28.9404 34 29.5 33.4404 29.5 32.75C29.5 32.0596 28.9404 31.5 28.25 31.5C27.5596 31.5 27 32.0596 27 32.75C27 33.4404 27.5596 34 28.25 34Z" stroke="#818B9C" stroke-width="1.5" stroke-miterlimit="10" stroke-linecap="round" stroke-linejoin="round"/>
<path d="M20.25 34C20.9404 34 21.5 33.4404 21.5 32.75C21.5 32.0596 20.9404 31.5 20.25 31.5C19.5596 31.5 19 32.0596 19 32.75C19 33.4404 19.5596 34 20.25 34Z" stroke="#818B9C" stroke-width="1.5" stroke-miterlimit="10" stroke-linecap="round" stroke-linejoin="round"/>
<path d="M21 20H33" stroke="white" stroke-width="1.5" stroke-miterlimit="10" stroke-linecap="round" stroke-linejoin="round"/>
</svg>
